<svg id="SvgjsSvg1001" width="288" height="288" xmlns="http://www.w3.org/2000/svg" version="1.1" xmlns:xlink="http://www.w3.org/1999/xlink" xmlns:svgjs="http://svgjs.com/svgjs"><path id="SvgjsPath1011" d="M 144,0 C 5,0 0,5 0,144 0,283 5,288 144,288 283,288 288,283 288,144 288,5 283,0 144,0 Z" transform="matrix(0.7916,0,0,0.7916,30.009600000000006,30.009600000000006)"></path><defs id="SvgjsDefs1002"></defs><g id="SvgjsG1008" transform="matrix(0.46520000000000006,0,0,0.46520000000000006,77.01120204010009,77.01119999999999)"><!--?xml version="1.0" encoding="UTF-8"?--><svg xmlns="http://www.w3.org/2000/svg" xmlns:xlink="http://www.w3.org/1999/xlink" version="1.1" id="Layer_1" x="0px" y="0px" width="288" height="288" viewBox="0 0 24 24" xml:space="preserve"><path d="M19.7.5H4.3c-.2 0-.5.2-.5.5v22c0 .3.2.5.5.5h5.1c.3 0 .5-.2.5-.5v-7.6h9.8c.3 0 .5-.2.5-.5V1c0-.3-.3-.5-.5-.5zm-5.6 8.9H9.9V6.5h4.2v2.9z" fill="#ffffff" class="color000 svgShape"></path><metadata><rdf:rdf xmlns:rdf="http://www.w3.org/1999/02/22-rdf-syntax-ns#" xmlns:rdfs="http://www.w3.org/2000/01/rdf-schema#" xmlns:dc="http://purl.org/dc/elements/1.1/"><rdf:description about="https://iconscout.com/legal#licenses" dc:title="p,copy" dc:description="p,copy" dc:publisher="Iconscout" dc:date="2018-01-30" dc:format="image/svg+xml" dc:language="en"><dc:creator><rdf:bag><rdf:li>Roundicons.com</rdf:li></rdf:bag></dc:creator></rdf:description></rdf:rdf></metadata></svg></g></svg>